# File created by Blade
# Date/Time:  Fri Jan 16 17:45:47 2015
#---------------------------------------------------------
:version 1.10
:name HOM
:units
  mass 1.0
  length 1.000000
  angle deg
:documentation
     Acclaim Skeleton File
:root
   axis xyz
   order TX TY TZ RX RY RZ
   position 0.000000 0.000000 0.000000
   orientation 0 0 0
:bonedata
   begin
      id 1
      name Spine_dum
      direction 0.000000 1.000000 0.000000
      length 7.170412
      axis 0.0 0.0 0.0 xyz
   end
   begin
      id 2
      name LeftUpLeg_dum
      direction 1.000000 0.000000 0.000000
      length 4.318350
      axis 0.0 0.0 0.0 xyz
   end
   begin
      id 3
      name RightUpLeg_dum
      direction -1.000000 0.000000 0.000000
      length 4.318350
      axis 0.0 0.0 0.0 xyz
   end
   begin
      id 4
      name Spine
      direction 0.000000 1.000000 0.000000
      length 0.000000
      axis 0.0 0.0 0.0 xyz
      dof rx ry rz
   end
   begin
      id 5
      name Spine_dum1
      direction 0.000000 1.000000 0.000000
      length 14.276153
      axis 0.0 0.0 0.0 xyz
   end
   begin
      id 6
      name Spine_dum2
      direction 0.000000 1.000000 0.000000
      length 10.718243
      axis 0.0 0.0 0.0 xyz
   end
   begin
      id 7
      name Spine_dum3
      direction 0.000000 1.000000 0.000000
      length 10.718243
      axis 0.0 0.0 0.0 xyz
   end
   begin
      id 8
      name Head
      direction 0.000000 1.000000 0.000000
      length 4.527550
      axis 0.0 0.0 0.0 xyz
      dof rx ry rz
   end
   begin
      id 9
      name LeftShoulder
      direction 1.000000 0.000000 0.000000
      length 7.058872
      axis 0.0 0.0 -90.0 xyz
      dof rx ry rz
   end
   begin
      id 10
      name LeftArm
      direction 1.000000 0.000000 0.000000
      length 10.955525
      axis 0.0 0.0 -90.0 xyz
      dof rx ry rz
   end
   begin
      id 11
      name LeftForeArm
      direction 1.000000 0.000000 0.000000
      length 8.193716
      axis 0.0 0.0 -90.0 xyz
      dof ry rz rx
   end
   begin
      id 12
      name LeftHand
      direction 0.000000 0.000000 0.000000
      length 0.000000
      axis 0.0 0.0 -90.0 xyz
      dof rx ry rz
   end
   begin
      id 13
      name LeftHand_dum1
      direction 0.000000 0.000000 0.000000
      length 0.000000
      axis 0.0 0.0 -90.0 xyz
   end
   begin
      id 14
      name LeftHand_dum2
      direction 1.000000 0.000000 0.000000
      length 3.937000
      axis 0.0 0.0 -90.0 xyz
   end
   begin
      id 15
      name LeftHandThumb1
      direction 0.000000 0.000000 1.000000
      length 3.937000
      axis 0.0 0.0 -90.0 xyz
      dof rx rz ry
   end
   begin
      id 16
      name RightShoulder
      direction -1.000000 0.000000 0.000000
      length 7.058872
      axis 0.0 0.0 90.0 xyz
      dof rx ry rz
   end
   begin
      id 17
      name RightArm
      direction -1.000000 0.000000 0.000000
      length 10.955525
      axis 0.0 0.0 90.0 xyz
      dof rx ry rz
   end
   begin
      id 18
      name RightForeArm
      direction -1.000000 0.000000 0.000000
      length 8.193716
      axis 0.0 0.0 90.0 xyz
      dof ry rz rx
   end
   begin
      id 19
      name RightHand
      direction 0.000000 0.000000 0.000000
      length 0.000000
      axis 0.0 0.0 90.0 xyz
      dof rx ry rz
   end
   begin
      id 20
      name RightHand_dum1
      direction 0.000000 0.000000 0.000000
      length 0.000000
      axis 0.0 0.0 90.0 xyz
   end
   begin
      id 21
      name RightHand_dum2
      direction -1.000000 0.000000 0.000000
      length 3.937000
      axis 0.0 0.0 90.0 xyz
   end
   begin
      id 22
      name RightHandThumb1
      direction 0.000000 0.000000 1.000000
      length 3.937000
      axis 0.0 0.0 90.0 xyz
      dof rx rz ry
   end
   begin
      id 23
      name LeftUpLeg
      direction 0.000000 -1.000000 0.000000
      length 17.323638
      axis 0.0 0.0 0.0 xyz
      dof rx ry rz
   end
   begin
      id 24
      name LeftLeg
      direction 0.000000 -1.000000 0.000000
      length 16.270368
      axis 0.0 0.0 0.0 xyz
      dof rx ry rz
   end
   begin
      id 25
      name LeftFoot
      direction 0.000000 -0.258819 0.965926
      length 4.922846
      axis 15.0 0.0 0.0 xyz
      dof rx ry rz
   end
   begin
      id 26
      name LeftToeBase
      direction 0.000000 0.000000 1.000000
      length 2.952750
      axis 0.0 0.0 0.0 xyz
      dof rx ry rz
   end
   begin
      id 27
      name RightUpLeg
      direction 0.000000 -1.000000 0.000000
      length 17.323638
      axis 0.0 0.0 0.0 xyz
      dof rx ry rz
   end
   begin
      id 28
      name RightLeg
      direction 0.000000 -1.000000 0.000000
      length 16.270368
      axis 0.0 0.0 0.0 xyz
      dof rx ry rz
   end
   begin
      id 29
      name RightFoot
      direction 0.000000 -0.258819 0.965926
      length 4.922846
      axis 15.0 0.0 0.0 xyz
      dof rx ry rz
   end
   begin
      id 30
      name RightToeBase
      direction 0.000000 0.000000 1.000000
      length 2.952750
      axis 0.0 0.0 0.0 xyz
      dof rx ry rz
   end
:hierarchy
   begin
      root Spine_dum LeftUpLeg_dum RightUpLeg_dum
      Spine_dum Spine
      LeftUpLeg_dum LeftUpLeg
      RightUpLeg_dum RightUpLeg
      Spine Spine_dum1 Spine_dum2 Spine_dum3
      Spine_dum1 Head
      Spine_dum2 LeftShoulder
      Spine_dum3 RightShoulder
      LeftShoulder LeftArm
      LeftArm LeftForeArm
      LeftForeArm LeftHand
      LeftHand LeftHand_dum1 LeftHand_dum2
      LeftHand_dum1 LeftHandThumb1
      RightShoulder RightArm
      RightArm RightForeArm
      RightForeArm RightHand
      RightHand RightHand_dum1 RightHand_dum2
      RightHand_dum1 RightHandThumb1
      LeftUpLeg LeftLeg
      LeftLeg LeftFoot
      LeftFoot LeftToeBase
      RightUpLeg RightLeg
      RightLeg RightFoot
      RightFoot RightToeBase
   end

# File created by Blade
# Date/Time:  Fri Jan 16 17:45:28 2015
# Frame Rate: 120.000 fps
#------------------------------------------------------
:FULLY-SPECIFIED
:DEGREES
2361
root -5.319774 35.244336 -10.043373 -2.872087 -6.532011 -6.019617
Spine -0.937358 -2.476919 9.975377
Head 7.351443 2.835859 -10.888616
LeftShoulder -19.628046 14.694809 -18.134227
LeftArm 19.013962 1.798757 -73.639654
LeftForeArm 4.505458 -0.000000 12.363995
LeftHand 1.979394 -0.000000 -6.358495
LeftHandThumb1 -26.253704 0.000000 33.147579
RightShoulder -0.511088 1.736154 3.911717
RightArm -7.082731 35.387790 71.901602
RightForeArm 19.060368 0.000000 8.596751
RightHand -4.246996 0.000000 -3.670749
RightHandThumb1 -24.326973 -0.000000 -32.862282
LeftUpLeg 13.062442 15.491390 7.581203
LeftLeg -9.091425 -0.000000 0.000000
LeftFoot -15.559035 27.501106 -8.209768
LeftToeBase 22.736699 -0.000000 -0.000000
RightUpLeg 9.035311 -3.959882 4.002707
RightLeg -4.170074 -0.000000 0.000000
RightFoot -4.211694 -26.974665 3.751119
RightToeBase 13.636162 -0.000000 -0.000000
2362
root -5.316601 35.244340 -10.042497 -2.877903 -6.584923 -6.029211
Spine -0.882143 -2.481903 10.036571
Head 7.294595 2.903411 -10.960159
LeftShoulder -19.617859 14.689367 -18.154931
LeftArm 19.029213 1.859310 -73.663576
LeftForeArm 4.486032 0.000000 12.377164
LeftHand 1.953014 -0.000000 -6.430970
LeftHandThumb1 -26.253704 0.000000 33.147579
RightShoulder -0.597021 1.675123 3.912273
RightArm -6.946780 35.603640 72.096104
RightForeArm 20.727158 -0.000000 8.443640
RightHand -3.588850 0.000000 -4.387155
RightHandThumb1 -24.326973 -0.000000 -32.862282
LeftUpLeg 13.107092 15.544533 7.593130
LeftLeg -9.137343 -0.000000 0.000000
LeftFoot -15.546017 27.503912 -8.211704
LeftToeBase 22.752472 -0.000000 -0.000000
RightUpLeg 9.034933 -3.876872 4.008530
RightLeg -4.157009 -0.000000 0.000000
RightFoot -4.218723 -26.977790 3.783981
RightToeBase 13.644916 -0.000000 -0.000000
2363
root -5.311932 35.243835 -10.042997 -2.877972 -6.634817 -6.033724
Spine -0.828142 -2.495720 10.082180
Head 7.228423 2.999802 -10.991102
LeftShoulder -19.622471 14.677488 -18.161266
LeftArm 19.052623 1.915176 -73.704001
LeftForeArm 4.503347 -0.000000 12.370515
LeftHand 1.921639 -0.000000 -6.492897
LeftHandThumb1 -26.253704 0.000000 33.147579
RightShoulder -0.641092 1.673527 3.902069
RightArm -6.982611 35.916223 72.070274
RightForeArm 21.487891 -0.000000 8.418249
RightHand -3.326738 -0.000000 -4.753407
RightHandThumb1 -24.326973 -0.000000 -32.862282
LeftUpLeg 13.133806 15.589723 7.596454
LeftLeg -9.166690 -0.000000 0.000000
LeftFoot -15.554817 27.527278 -8.159471
LeftToeBase 22.884209 -0.000000 -0.000000
RightUpLeg 9.012469 -3.845789 4.009897
RightLeg -4.121821 -0.000000 0.000000
RightFoot -4.222138 -26.982016 3.736998
RightToeBase 13.683516 -0.000000 -0.000000
2364
root -5.306740 35.243733 -10.043395 -2.877302 -6.667404 -6.033732
Spine -0.782448 -2.529253 10.117466
Head 7.169939 3.092519 -11.012077
LeftShoulder -19.638007 14.652050 -18.160070
LeftArm 19.066973 1.999660 -73.735460
LeftForeArm 4.456875 -0.000000 12.354918
LeftHand 1.933845 -0.000000 -6.532654
LeftHandThumb1 -26.253704 0.000000 33.147579
RightShoulder -0.670023 1.716727 3.874797
RightArm -7.090975 36.167996 71.954373
RightForeArm 21.645476 -0.000000 8.447449
RightHand -3.501864 -0.000000 -4.786261
RightHandThumb1 -24.326973 -0.000000 -32.862282
LeftUpLeg 13.149983 15.608091 7.590225
LeftLeg -9.185532 -0.000000 0.000000
LeftFoot -15.549840 27.535371 -8.159443
LeftToeBase 22.854412 -0.000000 -0.000000
RightUpLeg 8.996844 -3.828230 4.001635
RightLeg -4.099679 -0.000000 0.000000
RightFoot -4.229030 -26.965131 3.747936
RightToeBase 13.682692 -0.000000 -0.000000
2365
root -5.302551 35.243724 -10.043492 -2.870965 -6.698899 -6.029147
Spine -0.748841 -2.564632 10.138478
Head 7.123681 3.199944 -11.012407
LeftShoulder -19.645024 14.611312 -18.145176
LeftArm 19.051827 2.027943 -73.778034
LeftForeArm 4.463533 -0.000000 12.355313
LeftHand 1.968179 0.000000 -6.498522
LeftHandThumb1 -26.253704 0.000000 33.147579
RightShoulder -0.705329 1.766327 3.847317
RightArm -7.156810 36.337026 71.831156
RightForeArm 21.697199 0.000000 8.461723
RightHand -3.879368 -0.000000 -5.059959
RightHandThumb1 -24.326973 -0.000000 -32.862282
LeftUpLeg 13.157939 15.623439 7.577979
LeftLeg -9.199796 -0.000000 0.000000
LeftFoot -15.538114 27.547592 -8.167767
LeftToeBase 22.836372 -0.000000 -0.000000
RightUpLeg 8.982851 -3.782757 3.993025
RightLeg -4.089678 -0.000000 0.000000
RightFoot -4.224567 -26.970924 3.749350
RightToeBase 13.654341 -0.000000 -0.000000
2366
root -5.297509 35.243615 -10.044585 -2.861494 -6.708310 -6.025409
Spine -0.723796 -2.614523 10.160109
Head 7.084885 3.269078 -11.014210
LeftShoulder -19.632798 14.597780 -18.124471
LeftArm 19.041394 2.054207 -73.828671
LeftForeArm 4.467638 -0.000000 12.382109
LeftHand 1.951611 -0.000000 -6.427830
LeftHandThumb1 -26.253704 0.000000 33.147579
RightShoulder -0.734126 1.812677 3.822681
RightArm -7.198124 36.448627 71.697568
RightForeArm 22.043055 -0.000000 8.499303
RightHand -3.845218 -0.000000 -5.277711
RightHandThumb1 -24.326973 -0.000000 -32.862282
LeftUpLeg 13.149172 15.632795 7.563755
LeftLeg -9.204442 -0.000000 0.000000
LeftFoot -15.536798 27.549119 -8.168577
LeftToeBase 22.830219 -0.000000 -0.000000
RightUpLeg 8.966119 -3.764545 3.985467
RightLeg -4.083350 -0.000000 0.000000
RightFoot -4.226752 -26.994374 3.738933
RightToeBase 13.672497 -0.000000 -0.000000
2367
root -5.292070 35.243536 -10.045238 -2.855491 -6.719165 -6.015836
Spine -0.698072 -2.658897 10.167859
Head 7.054176 3.351261 -10.989333
LeftShoulder -19.626886 14.592900 -18.101977
LeftArm 19.052196 2.112197 -73.859941
LeftForeArm 4.424970 -0.000000 12.383564
LeftHand 2.008494 -0.000000 -6.318796
LeftHandThumb1 -26.253704 0.000000 33.147579
RightShoulder -0.755242 1.896909 3.789952
RightArm -7.273513 36.451168 71.534047
RightForeArm 22.324074 -0.000000 8.563529
RightHand -4.089866 -0.000000 -5.679636
RightHandThumb1 -24.326973 -0.000000 -32.862282
LeftUpLeg 13.142155 15.617065 7.539272
LeftLeg -9.202536 -0.000000 0.000000
LeftFoot -15.544391 27.571691 -8.173138
LeftToeBase 22.865563 -0.000000 -0.000000
RightUpLeg 8.943901 -3.823899 3.963533
RightLeg -4.062064 -0.000000 0.000000
RightFoot -4.227120 -26.948992 3.690950
RightToeBase 13.710112 -0.000000 -0.000000
2368
root -5.287106 35.243534 -10.045656 -2.845015 -6.712840 -6.003424
Spine -0.684243 -2.720606 10.172406
Head 7.025264 3.431365 -10.974057
LeftShoulder -19.614913 14.588751 -18.084902
LeftArm 19.052848 2.145158 -73.891502
LeftForeArm 4.416101 -0.000000 12.406789
LeftHand 1.939379 -0.000000 -6.331446
LeftHandThumb1 -26.253704 0.000000 33.147579
RightShoulder -0.775309 1.966742 3.748611
RightArm -7.328993 36.608782 71.377563
RightForeArm 22.486224 -0.000000 8.643920
RightHand -4.110270 -0.000000 -6.255046
RightHandThumb1 -24.326973 -0.000000 -32.862282
LeftUpLeg 13.116027 15.595048 7.512753
LeftLeg -9.181630 -0.000000 0.000000
LeftFoot -15.562988 27.580995 -8.187100
LeftToeBase 22.859550 -0.000000 -0.000000
RightUpLeg 8.932087 -3.843486 3.942690
RightLeg -4.065707 -0.000000 0.000000
RightFoot -4.210239 -26.938598 3.649318
RightToeBase 13.743627 -0.000000 -0.000000
2369
root -5.281593 35.243782 -10.046312 -2.836716 -6.707697 -5.993093
Spine -0.666359 -2.784283 10.179372
Head 7.000766 3.495120 -10.959250
LeftShoulder -19.603386 14.569501 -18.066656
LeftArm 19.044059 2.233605 -73.898063
LeftForeArm 4.337405 -0.000000 12.426475
LeftHand 1.879889 -0.000000 -6.320863
LeftHandThumb1 -26.253704 0.000000 33.147579
RightShoulder -0.795392 2.056038 3.701866
RightArm -7.353199 36.680898 71.215533
RightForeArm 22.733480 -0.000000 8.731231
RightHand -4.083439 -0.000000 -7.130025
RightHandThumb1 -24.326973 -0.000000 -32.862282
LeftUpLeg 13.098978 15.539782 7.482736
LeftLeg -9.170525 -0.000000 0.000000
LeftFoot -15.567781 27.605822 -8.206260
LeftToeBase 22.828743 -0.000000 -0.000000
RightUpLeg 8.919772 -3.906094 3.923242
RightLeg -4.068989 -0.000000 0.000000
RightFoot -4.205165 -26.927306 3.633451
RightToeBase 13.729280 -0.000000 -0.000000
2370
root -5.275874 35.243965 -10.046626 -2.823002 -6.697695 -5.979408
Spine -0.663902 -2.851756 10.177017
Head 6.992429 3.544064 -10.927288
LeftShoulder -19.584490 14.558734 -18.041450
LeftArm 19.035246 2.346536 -73.889342
LeftForeArm 4.253511 -0.000000 12.450666
LeftHand 1.803265 -0.000000 -6.311352
LeftHandThumb1 -26.253704 0.000000 33.147579
RightShoulder -0.808339 2.144299 3.652806
RightArm -7.401452 36.605496 71.045975
RightForeArm 23.029639 0.000000 8.835740
RightHand -3.955755 -0.000000 -7.784139
RightHandThumb1 -24.326973 -0.000000 -32.862282
LeftUpLeg 13.068543 15.499406 7.448609
LeftLeg -9.150577 -0.000000 0.000000
LeftFoot -15.580979 27.638326 -8.222341
LeftToeBase 22.815091 -0.000000 -0.000000
RightUpLeg 8.913151 -3.919517 3.900295
RightLeg -4.090066 -0.000000 0.000000
RightFoot -4.195334 -26.915249 3.622894
RightToeBase 13.728233 -0.000000 -0.000000
2371
root -5.270708 35.244380 -10.046549 -2.812478 -6.666666 -5.971809
Spine -0.659227 -2.932806 10.175073
Head 6.984308 3.587501 -10.880959
LeftShoulder -19.587467 14.555729 -18.034279
LeftArm 19.058358 2.424614 -73.881061
LeftForeArm 4.216523 -0.000000 12.466737
LeftHand 1.795330 0.000000 -6.277400
LeftHandThumb1 -26.253704 0.000000 33.147579
RightShoulder -0.816179 2.216574 3.617610
RightArm -7.415077 36.417111 70.860604
RightForeArm 23.303623 0.000000 8.959285
RightHand -4.098555 -0.000000 -8.229737
RightHandThumb1 -24.326973 -0.000000 -32.862282
LeftUpLeg 13.035649 15.426927 7.419431
LeftLeg -9.130632 -0.000000 0.000000
LeftFoot -15.605794 27.677524 -8.244159
LeftToeBase 22.816819 -0.000000 -0.000000
RightUpLeg 8.911232 -3.965712 3.882578
RightLeg -4.108236 -0.000000 0.000000
RightFoot -4.175505 -26.893206 3.617062
RightToeBase 13.747318 -0.000000 -0.000000
2372
root -5.264486 35.245353 -10.046853 -2.793974 -6.647087 -5.966965
Spine -0.662613 -2.994612 10.181313
Head 6.972112 3.594622 -10.844654
LeftShoulder -19.594602 14.555273 -18.042668
LeftArm 19.098685 2.565112 -73.826553
LeftForeArm 4.128693 0.000000 12.470715
LeftHand 1.876441 -0.000000 -6.200133
LeftHandThumb1 -26.253704 0.000000 33.147579
RightShoulder -0.838055 2.305049 3.583387
RightArm -7.423796 36.126320 70.649956
RightForeArm 23.556690 0.000000 9.063665
RightHand -3.991154 0.000000 -8.969505
RightHandThumb1 -24.326973 -0.000000 -32.862282
LeftUpLeg 12.999243 15.357398 7.389781
LeftLeg -9.110189 -0.000000 0.000000
LeftFoot -15.621032 27.714219 -8.263878
LeftToeBase 22.820705 -0.000000 -0.000000
RightUpLeg 8.900526 -3.985173 3.867215
RightLeg -4.127563 -0.000000 0.000000
RightFoot -4.162941 -26.869771 3.695545
RightToeBase 13.638930 -0.000000 -0.000000
2373
root -5.258697 35.245588 -10.046371 -2.784693 -6.639600 -5.961612
Spine -0.650280 -3.037223 10.172745
Head 6.958892 3.585005 -10.770825
LeftShoulder -19.599620 14.561938 -18.039956
LeftArm 19.143012 2.643012 -73.803264
LeftForeArm 4.076870 0.000000 12.474710
LeftHand 1.944519 -0.000000 -6.195253
LeftHandThumb1 -26.253704 0.000000 33.147579
RightShoulder -0.818351 2.386472 3.563615
RightArm -7.690216 36.306931 70.173569
RightForeArm 22.072786 -0.000000 9.498488
RightHand -5.221909 -0.000000 -8.572679
RightHandThumb1 -24.326973 -0.000000 -32.862282
LeftUpLeg 12.971590 15.324460 7.366726
LeftLeg -9.074948 -0.000000 0.000000
LeftFoot -15.638335 27.736857 -8.255903
LeftToeBase 22.769733 -0.000000 -0.000000
RightUpLeg 8.899849 -3.992642 3.854802
RightLeg -4.148005 -0.000000 0.000000
RightFoot -4.147702 -26.897648 3.633727
RightToeBase 13.801814 -0.000000 -0.000000
